<svg width="48" height="47" viewBox="0 0 48 47" fill="none" xmlns="http://www.w3.org/2000/svg">
<g filter="url(#filter0_dd)">
<path fill-rule="evenodd" clip-rule="evenodd" d="M37.5 13.937C37.5135 14.8475 37.3995 15.989 37.299 16.8215C37.2671 17.0965 37.217 17.3691 37.149 17.6375C38.433 20.015 39 22.8755 39 26C39 29.702 37.2195 32.7515 34.446 34.8305C31.698 36.89 27.99 38 24 38C20.01 38 16.302 36.89 13.554 34.8305C10.7805 32.7515 9 29.702 9 26C9 22.8755 9.5655 20.015 10.8525 17.6375C10.7845 17.3691 10.7344 17.0965 10.7025 16.8215C10.599 15.989 10.485 14.8475 10.5 13.937C10.515 12.9125 10.65 11.888 10.7985 10.871C10.8675 10.4 10.9755 9.9575 11.487 9.6785C12.009 9.3935 12.558 9.4985 13.0995 9.653C14.9265 10.1705 16.6395 10.898 18.2505 11.768C19.95 11.2595 21.867 11 24 11C26.133 11 28.05 11.2595 29.748 11.7695C31.3816 10.8764 33.1092 10.1671 34.899 9.6545C35.4405 9.5 35.991 9.3935 36.5115 9.6785C37.0215 9.9575 37.131 10.4 37.2015 10.871C37.3485 11.888 37.485 12.9125 37.5 13.937ZM36 26C36 23.4695 35.418 20 32.25 20C30.822 20 29.4705 20.375 28.1205 20.75C26.772 21.125 25.425 21.5 24 21.5C22.575 21.5 21.228 21.125 19.8795 20.75C18.5295 20.375 17.1795 20 15.75 20C12.591 20 12 23.48 12 26C12 28.646 13.2405 30.8465 15.354 32.4305C17.49 34.034 20.535 35 24 35C27.465 35 30.5085 34.0325 32.646 32.4305C34.7595 30.845 36 28.646 36 26ZM21 26.75C21 28.82 19.992 30.5 18.75 30.5C17.508 30.5 16.5 28.82 16.5 26.75C16.5 24.68 17.508 23 18.75 23C19.992 23 21 24.68 21 26.75ZM29.25 30.5C30.492 30.5 31.5 28.82 31.5 26.75C31.5 24.68 30.492 23 29.25 23C28.008 23 27 24.68 27 26.75C27 28.82 28.008 30.5 29.25 30.5Z" fill="#F2F2F2"/>
</g>
<defs>
<filter id="filter0_dd" x="-3" y="-4" width="54" height="54" filterUnits="userSpaceOnUse" color-interpolation-filters="sRGB">
<feFlood flood-opacity="0" result="BackgroundImageFix"/>
<feColorMatrix in="SourceAlpha" type="matrix" values="0 0 0 0 0 0 0 0 0 0 0 0 0 0 0 0 0 0 127 0" result="hardAlpha"/>
<feMorphology radius="2" operator="dilate" in="SourceAlpha" result="effect1_dropShadow"/>
<feOffset/>
<feGaussianBlur stdDeviation="3.5"/>
<feColorMatrix type="matrix" values="0 0 0 0 0.94902 0 0 0 0 0.94902 0 0 0 0 0.94902 0 0 0 0.53 0"/>
<feBlend mode="normal" in2="BackgroundImageFix" result="effect1_dropShadow"/>
<feColorMatrix in="SourceAlpha" type="matrix" values="0 0 0 0 0 0 0 0 0 0 0 0 0 0 0 0 0 0 127 0" result="hardAlpha"/>
<feMorphology radius="1" operator="dilate" in="SourceAlpha" result="effect2_dropShadow"/>
<feOffset/>
<feGaussianBlur stdDeviation="2"/>
<feColorMatrix type="matrix" values="0 0 0 0 0.654902 0 0 0 0 0.94902 0 0 0 0 0.921569 0 0 0 1 0"/>
<feBlend mode="normal" in2="effect1_dropShadow" result="effect2_dropShadow"/>
<feBlend mode="normal" in="SourceGraphic" in2="effect2_dropShadow" result="shape"/>
</filter>
</defs>
</svg>
