<svg width="383" height="48" viewBox="0 0 383 48" fill="none" xmlns="http://www.w3.org/2000/svg">
<path d="M23.3145 28.0117C23.3145 29.5859 22.9928 30.9655 22.3496 32.1504C21.7064 33.3353 20.8092 34.3255 19.6582 35.1211C18.5072 35.8997 17.1191 36.4837 15.4941 36.873C13.8861 37.2624 12.1087 37.457 10.1621 37.457C9.2819 37.457 8.40169 37.4232 7.52148 37.3555C6.6582 37.2878 5.82031 37.2031 5.00781 37.1016C4.21224 37 3.45898 36.8815 2.74805 36.7461C2.03711 36.6107 1.39388 36.4668 0.818359 36.3145V31.9473C2.08789 32.4212 3.50977 32.7936 5.08398 33.0645C6.67513 33.3353 8.47786 33.4707 10.4922 33.4707C11.9479 33.4707 13.1836 33.3607 14.1992 33.1406C15.2318 32.9036 16.0697 32.5651 16.7129 32.125C17.373 31.668 17.847 31.1178 18.1348 30.4746C18.4395 29.8314 18.5918 29.0951 18.5918 28.2656C18.5918 27.3685 18.3379 26.6068 17.8301 25.9805C17.3392 25.3372 16.6875 24.7702 15.875 24.2793C15.0625 23.7715 14.1315 23.3145 13.082 22.9082C12.0495 22.485 10.9915 22.0534 9.9082 21.6133C8.82487 21.1732 7.75846 20.6992 6.70898 20.1914C5.67643 19.6667 4.75391 19.0573 3.94141 18.3633C3.12891 17.6523 2.46875 16.8229 1.96094 15.875C1.47005 14.9271 1.22461 13.8014 1.22461 12.498C1.22461 11.3639 1.46159 10.2467 1.93555 9.14648C2.40951 8.04622 3.14583 7.07292 4.14453 6.22656C5.14323 5.36328 6.42122 4.66927 7.97852 4.14453C9.55273 3.61979 11.4232 3.35742 13.5898 3.35742C14.1484 3.35742 14.7493 3.38281 15.3926 3.43359C16.0527 3.48438 16.7129 3.56055 17.373 3.66211C18.0501 3.74674 18.7103 3.84831 19.3535 3.9668C20.0137 4.08529 20.623 4.21224 21.1816 4.34766V8.41016C19.8783 8.03776 18.5749 7.75846 17.2715 7.57227C15.9681 7.36914 14.707 7.26758 13.4883 7.26758C10.8984 7.26758 8.99414 7.69922 7.77539 8.5625C6.55664 9.42578 5.94727 10.5853 5.94727 12.041C5.94727 12.9382 6.19271 13.7083 6.68359 14.3516C7.19141 14.9948 7.85156 15.5703 8.66406 16.0781C9.47656 16.5859 10.3991 17.0514 11.4316 17.4746C12.4811 17.8809 13.5475 18.304 14.6309 18.7441C15.7142 19.1842 16.7721 19.6667 17.8047 20.1914C18.8542 20.7161 19.7852 21.3424 20.5977 22.0703C21.4102 22.7812 22.0618 23.6191 22.5527 24.584C23.0605 25.5488 23.3145 26.6914 23.3145 28.0117ZM51.1893 37L51.0877 33.5723C49.6997 34.9434 48.2863 35.9336 46.8475 36.543C45.4256 37.1523 43.9276 37.457 42.3534 37.457C40.8976 37.457 39.6535 37.2708 38.6209 36.8984C37.5884 36.526 36.7336 36.0182 36.0565 35.375C35.3963 34.7148 34.9054 33.9447 34.5838 33.0645C34.2791 32.1842 34.1268 31.2279 34.1268 30.1953C34.1268 27.6393 35.0747 25.6419 36.9705 24.2031C38.8833 22.7474 41.7017 22.0195 45.4256 22.0195H50.7069V19.7852C50.7069 18.2786 50.2245 17.0768 49.2596 16.1797C48.2948 15.2656 46.8221 14.8086 44.8416 14.8086C43.4028 14.8086 41.981 14.9694 40.576 15.291C39.188 15.6126 37.7492 16.0697 36.2596 16.6621V12.6758C36.8182 12.4727 37.436 12.278 38.1131 12.0918C38.8071 11.8887 39.535 11.7109 40.2967 11.5586C41.0584 11.4062 41.854 11.2878 42.6834 11.2031C43.5129 11.1016 44.3508 11.0508 45.1971 11.0508C46.7375 11.0508 48.1255 11.2201 49.3612 11.5586C50.5968 11.8971 51.6379 12.4134 52.4842 13.1074C53.3475 13.8014 54.0077 14.6732 54.4647 15.7227C54.9217 16.7721 55.1502 18.0078 55.1502 19.4297V37H51.1893ZM50.7069 25.3965H45.0955C43.9953 25.3965 43.0474 25.5065 42.2518 25.7266C41.4562 25.9466 40.8045 26.2598 40.2967 26.666C39.7889 27.0723 39.408 27.5632 39.1541 28.1387C38.9172 28.6973 38.7987 29.332 38.7987 30.043C38.7987 30.5339 38.8748 31.0078 39.0272 31.4648C39.1795 31.9049 39.425 32.3027 39.7635 32.6582C40.1021 32.9967 40.5422 33.2676 41.0838 33.4707C41.6255 33.6738 42.2857 33.7754 43.0643 33.7754C44.0799 33.7754 45.2394 33.4707 46.5428 32.8613C47.8631 32.235 49.2511 31.2533 50.7069 29.916V25.3965ZM85.7419 37V18.6934C85.7419 17.8978 85.708 17.2461 85.6403 16.7383C85.5895 16.2305 85.4964 15.8327 85.361 15.5449C85.2425 15.2402 85.0817 15.0286 84.8786 14.9102C84.6924 14.7917 84.4554 14.7324 84.1677 14.7324C83.8291 14.7324 83.516 14.834 83.2282 15.0371C82.9404 15.2402 82.6273 15.5703 82.2887 16.0273C81.9671 16.4844 81.6032 17.0938 81.197 17.8555C80.8076 18.6003 80.3421 19.5228 79.8005 20.623V37H75.7634V19.1758C75.7634 18.2448 75.7295 17.4915 75.6618 16.916C75.611 16.3405 75.5179 15.8919 75.3825 15.5703C75.264 15.2487 75.1032 15.0286 74.9001 14.9102C74.697 14.7917 74.4515 14.7324 74.1637 14.7324C73.8591 14.7324 73.5713 14.8171 73.3005 14.9863C73.0296 15.1556 72.7249 15.4603 72.3864 15.9004C72.0648 16.3405 71.7009 16.9414 71.2946 17.7031C70.8884 18.4648 70.4059 19.4382 69.8473 20.623V37H65.7848V11.5078H69.1618L69.3649 16.3574C69.805 15.3926 70.2282 14.5716 70.6345 13.8945C71.0576 13.2174 71.4893 12.6758 71.9294 12.2695C72.3695 11.8464 72.835 11.5417 73.3259 11.3555C73.8337 11.1523 74.3923 11.0508 75.0016 11.0508C76.3727 11.0508 77.4137 11.4993 78.1247 12.3965C78.8356 13.2936 79.1911 14.6816 79.1911 16.5605C79.5973 15.6803 79.9951 14.9017 80.3845 14.2246C80.7738 13.5306 81.1885 12.9551 81.6286 12.498C82.0856 12.0241 82.585 11.6686 83.1266 11.4316C83.6683 11.1777 84.2946 11.0508 85.0055 11.0508C88.2048 11.0508 89.8044 13.5137 89.8044 18.4395V37H85.7419ZM157.488 3.81445L146.214 37H140.12L129.101 3.81445H134.204L141.365 26.1836L143.396 32.7344L145.478 26.1836L152.663 3.81445H157.488ZM174.495 15.1641H166.954V11.5078H178.964V33.3184H186.556V37H166.116V33.3184H174.495V15.1641ZM176.044 0.818359C176.535 0.818359 176.992 0.911458 177.415 1.09766C177.838 1.26693 178.202 1.51237 178.507 1.83398C178.829 2.1556 179.074 2.52799 179.243 2.95117C179.43 3.35742 179.523 3.80599 179.523 4.29688C179.523 4.77083 179.43 5.2194 179.243 5.64258C179.074 6.06576 178.829 6.43815 178.507 6.75977C178.202 7.08138 177.838 7.33529 177.415 7.52148C176.992 7.69076 176.535 7.77539 176.044 7.77539C175.553 7.77539 175.096 7.69076 174.673 7.52148C174.25 7.33529 173.877 7.08138 173.556 6.75977C173.251 6.43815 173.006 6.06576 172.82 5.64258C172.65 5.2194 172.566 4.77083 172.566 4.29688C172.566 3.80599 172.65 3.35742 172.82 2.95117C173.006 2.52799 173.251 2.1556 173.556 1.83398C173.877 1.51237 174.25 1.26693 174.673 1.09766C175.096 0.911458 175.553 0.818359 176.044 0.818359ZM207.245 4.75391H199.704V1.12305H211.714V33.3184H219.306V37H198.866V33.3184H207.245V4.75391ZM239.995 4.75391H232.454V1.12305H244.464V33.3184H252.056V37H231.616V33.3184H239.995V4.75391ZM285.592 22.9082C285.592 23.5345 285.584 24.0592 285.567 24.4824C285.55 24.9056 285.525 25.3034 285.491 25.6758H267.591C267.591 28.2826 268.318 30.2884 269.774 31.6934C271.23 33.0814 273.329 33.7754 276.071 33.7754C276.816 33.7754 277.561 33.75 278.305 33.6992C279.05 33.6315 279.77 33.5469 280.464 33.4453C281.158 33.3438 281.818 33.2337 282.444 33.1152C283.087 32.9798 283.68 32.8359 284.221 32.6836V36.3145C283.02 36.653 281.657 36.9238 280.134 37.127C278.627 37.347 277.061 37.457 275.436 37.457C273.253 37.457 271.374 37.1608 269.8 36.5684C268.225 35.9759 266.93 35.1211 265.915 34.0039C264.916 32.8698 264.171 31.4902 263.68 29.8652C263.206 28.2233 262.969 26.3698 262.969 24.3047C262.969 22.5104 263.223 20.8177 263.731 19.2266C264.256 17.6185 265.009 16.2135 265.991 15.0117C266.99 13.793 268.208 12.8281 269.647 12.1172C271.086 11.4062 272.719 11.0508 274.548 11.0508C276.325 11.0508 277.899 11.3301 279.27 11.8887C280.641 12.4473 281.792 13.2428 282.723 14.2754C283.671 15.291 284.382 16.5352 284.856 18.0078C285.347 19.4635 285.592 21.097 285.592 22.9082ZM280.997 22.2734C281.048 21.1393 280.938 20.1068 280.667 19.1758C280.396 18.2279 279.973 17.4154 279.397 16.7383C278.839 16.0612 278.136 15.5365 277.29 15.1641C276.443 14.7747 275.462 14.5801 274.344 14.5801C273.38 14.5801 272.499 14.7663 271.704 15.1387C270.908 15.5111 270.223 16.0358 269.647 16.7129C269.072 17.39 268.606 18.2025 268.251 19.1504C267.895 20.0983 267.675 21.1393 267.591 22.2734H280.997ZM315.169 15.1133C315.642 15.7057 316.006 16.3997 316.26 17.1953C316.531 17.974 316.667 18.8203 316.667 19.7344C316.667 21.0547 316.421 22.265 315.93 23.3652C315.456 24.4486 314.779 25.3796 313.899 26.1582C313.019 26.9368 311.961 27.5462 310.725 27.9863C309.506 28.4095 308.161 28.6211 306.688 28.6211C305.622 28.6211 304.623 28.5111 303.692 28.291C302.761 28.054 302.025 27.7663 301.483 27.4277C301.161 27.9017 300.891 28.3503 300.67 28.7734C300.45 29.1966 300.34 29.6706 300.34 30.1953C300.34 30.8385 300.645 31.3717 301.254 31.7949C301.881 32.2181 302.702 32.4466 303.717 32.4805L310.42 32.7344C311.69 32.7682 312.858 32.929 313.924 33.2168C315.008 33.5046 315.93 33.9193 316.692 34.4609C317.471 35.0026 318.072 35.6712 318.495 36.4668C318.935 37.2624 319.155 38.1849 319.155 39.2344C319.155 40.3685 318.909 41.4434 318.419 42.459C317.928 43.4746 317.166 44.3633 316.133 45.125C315.118 45.9036 313.823 46.5215 312.249 46.9785C310.674 47.4355 308.804 47.6641 306.637 47.6641C304.572 47.6641 302.812 47.4948 301.356 47.1562C299.917 46.8346 298.732 46.3776 297.801 45.7852C296.87 45.2096 296.193 44.5156 295.77 43.7031C295.347 42.9076 295.135 42.0273 295.135 41.0625C295.135 39.8268 295.423 38.7435 295.999 37.8125C296.574 36.8815 297.463 35.9844 298.665 35.1211C298.225 34.918 297.844 34.6641 297.522 34.3594C297.2 34.0547 296.938 33.7246 296.735 33.3691C296.532 32.9967 296.379 32.6074 296.278 32.2012C296.176 31.7949 296.126 31.3971 296.126 31.0078C296.126 29.9076 296.379 28.9004 296.887 27.9863C297.412 27.0723 298.03 26.209 298.741 25.3965C298.419 25.0072 298.131 24.6263 297.878 24.2539C297.641 23.8815 297.429 23.4837 297.243 23.0605C297.073 22.6204 296.938 22.1549 296.836 21.6641C296.752 21.1562 296.71 20.5807 296.71 19.9375C296.71 18.6172 296.947 17.4154 297.42 16.332C297.911 15.2318 298.588 14.2923 299.452 13.5137C300.332 12.735 301.381 12.1341 302.6 11.7109C303.836 11.2708 305.198 11.0508 306.688 11.0508C307.314 11.0508 307.915 11.0931 308.491 11.1777C309.066 11.2624 309.574 11.3724 310.014 11.5078H319.256V15.1133H315.169ZM299.833 40.6816C299.833 41.8835 300.459 42.7552 301.711 43.2969C302.964 43.8555 304.708 44.1348 306.942 44.1348C308.347 44.1348 309.523 44.0078 310.471 43.7539C311.436 43.5 312.206 43.1615 312.782 42.7383C313.374 42.332 313.797 41.8581 314.051 41.3164C314.305 40.7917 314.432 40.25 314.432 39.6914C314.432 38.6589 314.009 37.8971 313.163 37.4062C312.316 36.9154 311.021 36.6276 309.278 36.543L302.626 36.3145C302.067 36.6868 301.601 37.0508 301.229 37.4062C300.874 37.7617 300.594 38.1172 300.391 38.4727C300.188 38.8451 300.044 39.209 299.96 39.5645C299.875 39.9368 299.833 40.3092 299.833 40.6816ZM301.178 19.8359C301.178 20.6484 301.314 21.3932 301.585 22.0703C301.855 22.7474 302.236 23.3229 302.727 23.7969C303.218 24.2708 303.794 24.6432 304.454 24.9141C305.131 25.168 305.876 25.2949 306.688 25.2949C307.568 25.2949 308.347 25.151 309.024 24.8633C309.718 24.5586 310.294 24.1523 310.751 23.6445C311.225 23.1367 311.58 22.5527 311.817 21.8926C312.071 21.2324 312.198 20.5469 312.198 19.8359C312.198 19.0234 312.062 18.2786 311.792 17.6016C311.521 16.9245 311.14 16.349 310.649 15.875C310.158 15.401 309.574 15.0371 308.897 14.7832C308.237 14.5124 307.501 14.377 306.688 14.377C305.808 14.377 305.021 14.5293 304.327 14.834C303.65 15.1387 303.074 15.5449 302.6 16.0527C302.143 16.5436 301.788 17.1191 301.534 17.7793C301.297 18.4395 301.178 19.125 301.178 19.8359ZM345.938 37L345.836 33.5723C344.448 34.9434 343.035 35.9336 341.596 36.543C340.174 37.1523 338.676 37.457 337.102 37.457C335.646 37.457 334.402 37.2708 333.37 36.8984C332.337 36.526 331.482 36.0182 330.805 35.375C330.145 34.7148 329.654 33.9447 329.332 33.0645C329.028 32.1842 328.875 31.2279 328.875 30.1953C328.875 27.6393 329.823 25.6419 331.719 24.2031C333.632 22.7474 336.45 22.0195 340.174 22.0195H345.455V19.7852C345.455 18.2786 344.973 17.0768 344.008 16.1797C343.043 15.2656 341.571 14.8086 339.59 14.8086C338.151 14.8086 336.73 14.9694 335.325 15.291C333.937 15.6126 332.498 16.0697 331.008 16.6621V12.6758C331.567 12.4727 332.185 12.278 332.862 12.0918C333.556 11.8887 334.284 11.7109 335.045 11.5586C335.807 11.4062 336.603 11.2878 337.432 11.2031C338.261 11.1016 339.099 11.0508 339.946 11.0508C341.486 11.0508 342.874 11.2201 344.11 11.5586C345.345 11.8971 346.386 12.4134 347.233 13.1074C348.096 13.8014 348.756 14.6732 349.213 15.7227C349.67 16.7721 349.899 18.0078 349.899 19.4297V37H345.938ZM345.455 25.3965H339.844C338.744 25.3965 337.796 25.5065 337 25.7266C336.205 25.9466 335.553 26.2598 335.045 26.666C334.538 27.0723 334.157 27.5632 333.903 28.1387C333.666 28.6973 333.547 29.332 333.547 30.043C333.547 30.5339 333.623 31.0078 333.776 31.4648C333.928 31.9049 334.174 32.3027 334.512 32.6582C334.851 32.9967 335.291 33.2676 335.832 33.4707C336.374 33.6738 337.034 33.7754 337.813 33.7754C338.829 33.7754 339.988 33.4707 341.291 32.8613C342.612 32.235 344 31.2533 345.455 29.916V25.3965ZM382.496 30.043C382.496 30.9401 382.344 31.7441 382.039 32.4551C381.735 33.166 381.32 33.8008 380.795 34.3594C380.27 34.901 379.661 35.3665 378.967 35.7559C378.273 36.1452 377.528 36.4668 376.733 36.7207C375.954 36.9746 375.15 37.1608 374.321 37.2793C373.491 37.3978 372.679 37.457 371.883 37.457C370.156 37.457 368.565 37.3809 367.11 37.2285C365.671 37.0762 364.257 36.8307 362.869 36.4922V32.4297C364.359 32.8529 365.84 33.1745 367.313 33.3945C368.785 33.6146 370.25 33.7246 371.705 33.7246C373.821 33.7246 375.387 33.4368 376.403 32.8613C377.418 32.2858 377.926 31.4648 377.926 30.3984C377.926 29.9414 377.841 29.5352 377.672 29.1797C377.52 28.8073 377.232 28.4603 376.809 28.1387C376.386 27.8001 375.726 27.4531 374.828 27.0977C373.948 26.7422 372.738 26.3359 371.198 25.8789C370.046 25.5404 368.98 25.1595 367.998 24.7363C367.033 24.2962 366.196 23.7799 365.485 23.1875C364.774 22.5951 364.215 21.901 363.809 21.1055C363.403 20.3099 363.199 19.3704 363.199 18.2871C363.199 17.5762 363.36 16.7975 363.682 15.9512C364.02 15.1048 364.587 14.3177 365.383 13.5898C366.179 12.862 367.253 12.2611 368.608 11.7871C369.962 11.2962 371.655 11.0508 373.686 11.0508C374.684 11.0508 375.793 11.11 377.012 11.2285C378.231 11.3301 379.5 11.5163 380.821 11.7871V15.7227C379.433 15.3841 378.112 15.1387 376.86 14.9863C375.624 14.8171 374.549 14.7324 373.635 14.7324C372.535 14.7324 371.604 14.8171 370.842 14.9863C370.097 15.1556 369.488 15.3926 369.014 15.6973C368.557 15.985 368.227 16.332 368.024 16.7383C367.821 17.1276 367.719 17.5508 367.719 18.0078C367.719 18.4648 367.804 18.8796 367.973 19.252C368.159 19.6243 368.489 19.9883 368.963 20.3438C369.454 20.6823 370.131 21.0293 370.994 21.3848C371.858 21.7233 372.983 22.0957 374.371 22.502C375.878 22.9421 377.147 23.4076 378.18 23.8984C379.212 24.3724 380.05 24.9056 380.694 25.498C381.337 26.0905 381.794 26.7591 382.065 27.5039C382.352 28.2487 382.496 29.0951 382.496 30.043Z" fill="#A7F2EB"/>
</svg>
