<svg xmlns="http://www.w3.org/2000/svg" viewBox="0 0 367.06 48.88"><defs><style>.cls-1{fill:#f2f2f3;}</style></defs><g id="Layer_2" data-name="Layer 2"><g id="Layer_2-2" data-name="Layer 2"><path class="cls-1" d="M12.38,37.86A17.29,17.29,0,0,1,0,32.81l2.6-3a15.26,15.26,0,0,0,4.47,3.09,13.06,13.06,0,0,0,5.51,1.17,8.77,8.77,0,0,0,5.49-1.51A4.7,4.7,0,0,0,20,28.65a5.14,5.14,0,0,0-.47-2.29,4.79,4.79,0,0,0-1.3-1.61,8.81,8.81,0,0,0-1.95-1.19c-.74-.35-1.55-.71-2.42-1.1L9,20.33a19.91,19.91,0,0,1-2.6-1.25A11.05,11.05,0,0,1,4,17.32a8.6,8.6,0,0,1-1.74-2.47,7.71,7.71,0,0,1-.68-3.31A8,8,0,0,1,2.44,8,8.85,8.85,0,0,1,4.76,5.07a10.86,10.86,0,0,1,3.53-1.9,14.35,14.35,0,0,1,4.5-.67,14.77,14.77,0,0,1,5.93,1.17,14.6,14.6,0,0,1,4.58,3L21,9.52a12.92,12.92,0,0,0-3.69-2.37,12,12,0,0,0-4.68-.86A7.9,7.9,0,0,0,7.85,7.62,4.28,4.28,0,0,0,6,11.28a3.79,3.79,0,0,0,.55,2.11A5.87,5.87,0,0,0,8,14.9,9.65,9.65,0,0,0,9.93,16l2.19.93L16.9,19a22.24,22.24,0,0,1,2.94,1.43,10.94,10.94,0,0,1,2.39,1.87,8.13,8.13,0,0,1,1.61,2.5,8.45,8.45,0,0,1,.6,3.3,8.9,8.9,0,0,1-.83,3.8A9.14,9.14,0,0,1,21.22,35a11.3,11.3,0,0,1-3.8,2.08A15.79,15.79,0,0,1,12.38,37.86Z"/><path class="cls-1" d="M40.51,37.86a11,11,0,0,1-3.33-.5A8.8,8.8,0,0,1,34.45,36a6.42,6.42,0,0,1-2.52-5.28,6.82,6.82,0,0,1,1-3.72,8.09,8.09,0,0,1,3.23-2.73,22.82,22.82,0,0,1,5.69-1.87,70.62,70.62,0,0,1,8.37-1.14,9.17,9.17,0,0,0-.41-2.45,5.46,5.46,0,0,0-1.15-2,5.61,5.61,0,0,0-2.05-1.38,8.34,8.34,0,0,0-3.1-.52,12.22,12.22,0,0,0-4.78,1,30.06,30.06,0,0,0-4.06,2.06L33,15a22.13,22.13,0,0,1,2.21-1.28,25.52,25.52,0,0,1,2.7-1.17,24.2,24.2,0,0,1,3-.86,16.19,16.19,0,0,1,3.27-.33q5.2,0,7.72,2.83a11,11,0,0,1,2.53,7.57V37.23H51l-.36-3.43h-.16a24.35,24.35,0,0,1-4.7,2.86A12.4,12.4,0,0,1,40.51,37.86Zm1.14-3.44a10.22,10.22,0,0,0,4.29-1,19.12,19.12,0,0,0,4.29-2.78V24a54.64,54.64,0,0,0-6.78.89,18.66,18.66,0,0,0-4.37,1.38,5.69,5.69,0,0,0-2.32,1.82,4,4,0,0,0-.67,2.26,3.33,3.33,0,0,0,.47,1.84,3.83,3.83,0,0,0,1.22,1.25,5.45,5.45,0,0,0,1.77.73A9,9,0,0,0,41.65,34.42Z"/><path class="cls-1" d="M61.93,37.23V12h3.43l.37,3.33h.1a10.11,10.11,0,0,1,2.29-2.86,5.24,5.24,0,0,1,3.48-1.09q3.69,0,4.79,4.36a11.36,11.36,0,0,1,2.42-3.19,5.1,5.1,0,0,1,3.51-1.17,4.84,4.84,0,0,1,4.13,2,9.63,9.63,0,0,1,1.48,5.8V37.23H83.67V19.45Q83.67,15,81,15a2.74,2.74,0,0,0-2.18,1,15.6,15.6,0,0,0-1.87,2.94v18.3H73V19.45a7.14,7.14,0,0,0-.6-3.3,2.09,2.09,0,0,0-2-1.12,3.06,3.06,0,0,0-2.29,1,10.75,10.75,0,0,0-1.87,2.94v18.3Z"/><path class="cls-1" d="M134.42,37.23,123.55,3.12h4.58l5.51,18.41q.88,3.06,1.61,5.67c.49,1.73,1,3.6,1.67,5.61h.2c.32-1,.61-2,.89-2.88s.54-1.83.8-2.73.52-1.82.78-2.76l.81-2.91,5.46-18.41h4.42L139.46,37.23Z"/><path class="cls-1" d="M169,37.23V15.44H157.19V12h16V37.23Zm1.66-30.57a3.48,3.48,0,0,1-2.44-.91,3.14,3.14,0,0,1-1-2.42,3.13,3.13,0,0,1,1-2.42,3.73,3.73,0,0,1,4.88,0,3.13,3.13,0,0,1,1,2.42,3.14,3.14,0,0,1-1,2.42A3.48,3.48,0,0,1,170.61,6.66Z"/><path class="cls-1" d="M204.88,37.86a8.06,8.06,0,0,1-6.19-2.29q-2.13-2.3-2.13-6.81V3.69h-9V.21h13.26V29.07a5.22,5.22,0,0,0,1.35,4,5.27,5.27,0,0,0,3.64,1.22,11.47,11.47,0,0,0,4.74-1.14l1.09,3.17a27.94,27.94,0,0,1-3.23,1.12A13.82,13.82,0,0,1,204.88,37.86Z"/><path class="cls-1" d="M236.08,37.86a8.06,8.06,0,0,1-6.19-2.29q-2.13-2.3-2.13-6.81V3.69h-9V.21H232V29.07a5.22,5.22,0,0,0,1.35,4A5.25,5.25,0,0,0,237,34.32a11.47,11.47,0,0,0,4.74-1.14l1.09,3.17a27.94,27.94,0,0,1-3.23,1.12A13.82,13.82,0,0,1,236.08,37.86Z"/><path class="cls-1" d="M263.27,37.86a15.73,15.73,0,0,1-5.33-.89,12.2,12.2,0,0,1-7.23-6.78,14.16,14.16,0,0,1-1.06-5.65A13.68,13.68,0,0,1,250.71,19a13,13,0,0,1,2.86-4.16,12.53,12.53,0,0,1,4.11-2.62,13.89,13.89,0,0,1,9.73-.06,10.19,10.19,0,0,1,3.64,2.42,10.57,10.57,0,0,1,2.26,3.75,14.23,14.23,0,0,1,.78,4.83c0,.49,0,1,0,1.41a10.79,10.79,0,0,1-.16,1.19H254a8.93,8.93,0,0,0,3.15,6.48,10.43,10.43,0,0,0,6.68,2.15,12.24,12.24,0,0,0,4.14-.65A17,17,0,0,0,271.49,32l1.56,2.81A20.44,20.44,0,0,1,268.76,37,15.88,15.88,0,0,1,263.27,37.86Zm-.62-23.14a8.59,8.59,0,0,0-3,.52,8.38,8.38,0,0,0-2.58,1.48,8.16,8.16,0,0,0-1.92,2.42,10.8,10.8,0,0,0-1.09,3.32h16.12a8.55,8.55,0,0,0-2.26-5.82A7.33,7.33,0,0,0,262.65,14.72Z"/><path class="cls-1" d="M292.7,48.88c-3.71,0-6.57-.61-8.6-1.82a5.74,5.74,0,0,1-3-5.2,5,5,0,0,1,1.06-3,10,10,0,0,1,3.1-2.66V36a6.15,6.15,0,0,1-1.82-1.56,4.09,4.09,0,0,1-.78-2.6,4.73,4.73,0,0,1,.78-2.47,7.5,7.5,0,0,1,2.23-2.27v-.2a8.48,8.48,0,0,1-2.21-2.63,7.93,7.93,0,0,1-.91-3.93,8.49,8.49,0,0,1,3-6.57A9.88,9.88,0,0,1,288.62,12a11,11,0,0,1,3.82-.65,10.54,10.54,0,0,1,3.75.62h10.45v3.48h-6.55a7.78,7.78,0,0,1,1.51,2.24,6.81,6.81,0,0,1,.62,2.86,8.52,8.52,0,0,1-.75,3.64,8,8,0,0,1-2.08,2.73,9.46,9.46,0,0,1-3.12,1.72,12.29,12.29,0,0,1-3.83.59,9.91,9.91,0,0,1-2.1-.23,10.69,10.69,0,0,1-2.16-.7,3.51,3.51,0,0,0-2,2.91,2.32,2.32,0,0,0,1.38,2.21,8.68,8.68,0,0,0,3.88.7h5.66q4.89,0,7.26,1.35A4.86,4.86,0,0,1,306.74,40a6.42,6.42,0,0,1-1,3.38A9.18,9.18,0,0,1,303,46.23a15.92,15.92,0,0,1-4.42,1.92A21.48,21.48,0,0,1,292.7,48.88Zm.32-3.12a17.16,17.16,0,0,0,4-.42,11.47,11.47,0,0,0,3-1.11,5.62,5.62,0,0,0,1.9-1.62,3.22,3.22,0,0,0,.65-1.89,2.4,2.4,0,0,0-1.43-2.45,11.55,11.55,0,0,0-4.34-.62h-4.94c-.73,0-1.41,0-2.05-.08a8.33,8.33,0,0,1-1.8-.34,7,7,0,0,0-2.52,2.06,3.86,3.86,0,0,0-.7,2.15,3.53,3.53,0,0,0,2.1,3.15A13,13,0,0,0,293,45.76Zm-.58-19.4a5.65,5.65,0,0,0,5.83-6A6.07,6.07,0,0,0,297.8,18a5.84,5.84,0,0,0-1.25-1.87,5.53,5.53,0,0,0-1.84-1.22,6,6,0,0,0-4.53,0,5.53,5.53,0,0,0-1.84,1.22A5.84,5.84,0,0,0,287.09,18a6.07,6.07,0,0,0-.47,2.39,5.68,5.68,0,0,0,1.72,4.37A5.75,5.75,0,0,0,292.44,26.36Z"/><path class="cls-1" d="M321.3,37.86a10.88,10.88,0,0,1-3.32-.5,8.69,8.69,0,0,1-2.73-1.4,6.46,6.46,0,0,1-2.53-5.28,6.74,6.74,0,0,1,1-3.72A8.06,8.06,0,0,1,317,24.23a22.82,22.82,0,0,1,5.69-1.87A71.11,71.11,0,0,1,331,21.22a9.58,9.58,0,0,0-.42-2.45,5.3,5.3,0,0,0-1.14-2,5.65,5.65,0,0,0-2.06-1.38,8.32,8.32,0,0,0-3.09-.52,12.18,12.18,0,0,0-4.78,1,30.06,30.06,0,0,0-4.06,2.06L313.81,15a23.46,23.46,0,0,1,4.92-2.45,24,24,0,0,1,3-.86,16.37,16.37,0,0,1,3.28-.33c3.46,0,6,.94,7.72,2.83a11,11,0,0,1,2.52,7.57V37.23h-3.48l-.37-3.43h-.15a24.13,24.13,0,0,1-4.71,2.86A12.4,12.4,0,0,1,321.3,37.86Zm1.15-3.44a10.29,10.29,0,0,0,4.29-1A19.57,19.57,0,0,0,331,30.68V24a54.56,54.56,0,0,0-6.79.89,18.82,18.82,0,0,0-4.37,1.38,5.65,5.65,0,0,0-2.31,1.82,4,4,0,0,0-.68,2.26,3.42,3.42,0,0,0,.47,1.84,3.94,3.94,0,0,0,1.22,1.25,5.64,5.64,0,0,0,1.77.73A9.16,9.16,0,0,0,322.45,34.42Z"/><path class="cls-1" d="M355.83,37.86a19.87,19.87,0,0,1-6.92-1.17,24.69,24.69,0,0,1-5.51-2.79l2-2.8a19.23,19.23,0,0,0,4.81,2.49,18.17,18.17,0,0,0,6.16.94,8.1,8.1,0,0,0,4.81-1.17,3.4,3.4,0,0,0,1.59-2.78,3.58,3.58,0,0,0-.26-1.36A2.94,2.94,0,0,0,361.37,28,10.14,10.14,0,0,0,359,26.94a34.5,34.5,0,0,0-4.11-1,20.39,20.39,0,0,1-7.41-2.79,5.39,5.39,0,0,1-2.47-4.6,6.15,6.15,0,0,1,.68-2.83,6.4,6.4,0,0,1,2-2.29,10.37,10.37,0,0,1,3.28-1.51,17.1,17.1,0,0,1,4.55-.54,16.62,16.62,0,0,1,5.61,1,19.36,19.36,0,0,1,4.58,2.26l-2.08,2.76a16.49,16.49,0,0,0-3.9-1.93,14.23,14.23,0,0,0-4.58-.73c-2.15,0-3.66.37-4.52,1.1a3.22,3.22,0,0,0-1.3,2.54A2.73,2.73,0,0,0,351,20.83a26.12,26.12,0,0,0,5.62,1.69,37.06,37.06,0,0,1,5.2,1.43,11.43,11.43,0,0,1,3.2,1.69,4.89,4.89,0,0,1,1.61,2.08,7.27,7.27,0,0,1,.44,2.6,6,6,0,0,1-.73,2.91,7.11,7.11,0,0,1-2.15,2.39,11.38,11.38,0,0,1-3.54,1.64A17.58,17.58,0,0,1,355.83,37.86Z"/></g></g></svg>